<svg width="29" height="29" viewBox="0 0 29 29" fill="none" xmlns="http://www.w3.org/2000/svg">
<path d="M19.3335 13.2917C21.3393 13.2917 22.9464 11.6725 22.9464 9.66669C22.9464 7.66085 21.3393 6.04169 19.3335 6.04169C17.3277 6.04169 15.7085 7.66085 15.7085 9.66669C15.7085 11.6725 17.3277 13.2917 19.3335 13.2917ZM9.66683 13.2917C11.6727 13.2917 13.2797 11.6725 13.2797 9.66669C13.2797 7.66085 11.6727 6.04169 9.66683 6.04169C7.661 6.04169 6.04183 7.66085 6.04183 9.66669C6.04183 11.6725 7.661 13.2917 9.66683 13.2917ZM9.66683 15.7084C6.85141 15.7084 1.2085 17.1221 1.2085 19.9375V21.75C1.2085 22.4146 1.75225 22.9584 2.41683 22.9584H16.9168C17.5814 22.9584 18.1252 22.4146 18.1252 21.75V19.9375C18.1252 17.1221 12.4822 15.7084 9.66683 15.7084ZM19.3335 15.7084C18.9831 15.7084 18.5843 15.7325 18.1614 15.7688C18.1856 15.7809 18.1977 15.805 18.2097 15.8171C19.5872 16.82 20.5418 18.1613 20.5418 19.9375V21.75C20.5418 22.1729 20.4572 22.5838 20.3243 22.9584H26.5835C27.2481 22.9584 27.7918 22.4146 27.7918 21.75V19.9375C27.7918 17.1221 22.1489 15.7084 19.3335 15.7084Z" fill="#777777"/>
</svg>
