<svg width="22" height="22" viewBox="0 0 22 22" fill="none" xmlns="http://www.w3.org/2000/svg">
<path d="M8.39139 0.513062C6.94944 0.513062 5.76966 1.69284 5.76966 3.13478V5.75651H0.762172C0.604869 5.75651 0.526217 5.86138 0.526217 5.99246V12.3108C0.526217 13.0449 1.103 13.6217 1.83708 13.6217H20.1891C20.9232 13.6217 21.5 13.0449 21.5 12.3108V5.99246C21.5 5.83516 21.3951 5.75651 21.264 5.75651H16.2566V3.13478C16.2566 1.69284 15.0768 0.513062 13.6348 0.513062L8.39139 0.513062ZM8.39139 3.13478H13.6348V5.75651H8.39139V3.13478ZM0.526217 16.0074V21.2509C0.526217 21.382 0.631086 21.4868 0.762172 21.4868H21.2378C21.3689 21.4868 21.4738 21.382 21.4738 21.2509V16.0074C21.0543 16.1647 20.6348 16.2434 20.1629 16.2434H1.81086C1.33895 16.2434 0.919476 16.1385 0.5 16.0074H0.526217Z" fill="#777777"/>
</svg>
